# xmcd
#
# Track frame offsets: 
#        150
#        19708
#        38492
#        56074
#        75049
#        93293
#        110866
#        127981
#        146734
#        164258
#        181500
#        199866
#
# Disc length: 2877 seconds
#
# Revision: 1
# Processed by: cddbd v1.5.2PL0 Copyright (c) Steve Scherf et al.
# Submitted via: ExactAudioCopy v0.95b4
#
DISCID=8f0b3b0c
DTITLE=มนต์สิทธิ์ ดำรง - กล่อมเมือง
DYEAR=2007
DGENRE=Country
TTITLE0=มนต์เมืองเหนือ
TTITLE1=ท่าฉลอม
TTITLE2=สามหัวใจ
TTITLE3=ค่าน้ำนม
TTITLE4=เซียมซีเสี่ยงรัก
TTITLE5=ครวญ
TTITLE6=น้ำตาร่วงหลังพวงมาลัย
TTITLE7=โลกนี้คือละคร
TTITLE8=วิวาห์น้ำตา
TTITLE9=สาวนครชัยศรี
TTITLE10=เท่านี้ก็ตรม
TTITLE11=แม่ศรีเรือน
EXTD=
EXTT0=
EXTT1=
EXTT2=
EXTT3=
EXTT4=
EXTT5=
EXTT6=
EXTT7=
EXTT8=
EXTT9=
EXTT10=
EXTT11=
PLAYORDER=
